<?xml version="1.0" encoding="UTF-8" standalone="no"?><!DOCTYPE svg PUBLIC "-//W3C//DTD SVG 1.1//EN" "http://www.w3.org/Graphics/SVG/1.1/DTD/svg11.dtd"><svg width="100%" height="100%" viewBox="0 0 417 417" version="1.1" xmlns="http://www.w3.org/2000/svg" xmlns:xlink="http://www.w3.org/1999/xlink" xml:space="preserve" xmlns:serif="http://www.serif.com/" style="fill-rule:evenodd;clip-rule:evenodd;stroke-linejoin:round;stroke-miterlimit:2;"><g id="Layer1"><circle cx="208.333" cy="212.5" r="203.481" style="fill:#fff;"/></g><path d="M208.333,5.158c-115.104,0 -208.333,93.28 -208.333,208.334c0,92.062 59.688,170.137 142.45,197.654c10.413,1.962 14.233,-4.479 14.233,-10.017c0,-4.95 -0.171,-18.054 -0.258,-35.416c-57.954,12.57 -70.175,-27.95 -70.175,-27.95c-9.479,-24.046 -23.179,-30.471 -23.179,-30.471c-18.871,-12.917 1.458,-12.654 1.458,-12.654c20.921,1.458 31.913,21.458 31.913,21.458c18.575,31.854 48.766,22.654 60.675,17.325c1.875,-13.471 7.241,-22.659 13.196,-27.867c-46.267,-5.208 -94.896,-23.125 -94.896,-102.95c-0,-22.741 8.071,-41.321 21.441,-55.904c-2.345,-5.258 -9.375,-26.437 1.821,-55.137c0,-0 17.45,-5.592 57.292,21.354c16.667,-4.634 34.375,-6.925 52.083,-7.029c17.709,0.104 35.417,2.395 52.084,7.029c39.583,-26.946 57.033,-21.354 57.033,-21.354c11.196,28.7 4.166,49.879 2.083,55.137c13.279,14.583 21.354,33.163 21.354,55.904c0,80.034 -48.7,97.659 -95.054,102.779c7.292,6.25 14.063,19.025 14.063,38.542c-0,27.879 -0.259,50.275 -0.259,57.046c0,5.471 3.646,11.979 14.321,9.896c83.354,-27.325 142.988,-105.45 142.988,-197.379c-0,-115.05 -93.284,-208.334 -208.334,-208.334" style="fill-rule:nonzero;"/></svg>