<?xml version="1.0" encoding="UTF-8" standalone="no"?><!DOCTYPE svg PUBLIC "-//W3C//DTD SVG 1.1//EN" "http://www.w3.org/Graphics/SVG/1.1/DTD/svg11.dtd"><svg width="100%" height="100%" viewBox="0 0 100 100" version="1.1" xmlns="http://www.w3.org/2000/svg" xmlns:xlink="http://www.w3.org/1999/xlink" xml:space="preserve" xmlns:serif="http://www.serif.com/" style="fill-rule:evenodd;clip-rule:evenodd;stroke-linejoin:round;stroke-miterlimit:2;"><g id="Layer1"><path d="M100,20.714c0,-4.563 -3.705,-8.268 -8.268,-8.268l-83.464,0c-4.563,0 -8.268,3.705 -8.268,8.268l0,58.628c0,4.563 3.705,8.268 8.268,8.268l83.464,-0c4.563,-0 8.268,-3.705 8.268,-8.268l0,-58.628Z" style="fill:#fff;"/></g><path d="M100,18.75l0,62.5c0,3.542 -2.708,6.25 -6.25,6.25l-6.25,0l0,-56.721l-37.5,26.929l-37.5,-26.929l0,56.721l-6.25,0c-3.546,0 -6.25,-2.708 -6.25,-6.25l0,-62.5c0,-1.771 0.675,-3.333 1.796,-4.45c1.121,-1.133 2.687,-1.8 4.454,-1.8l2.083,0l41.667,30.208l41.667,-30.208l2.083,0c1.771,0 3.333,0.675 4.454,1.8c1.125,1.117 1.796,2.679 1.796,4.45Z" style="fill-rule:nonzero;"/></svg>